# MagicaVoxel @ Ephtracy

# group
o 

# material
mtllib chao_de_pedra.mtl
usemtl palette

# normals
vn -1 0 0
vn 1 0 0
vn 0 0 1
vn 0 0 -1
vn 0 -1 0
vn 0 1 0

# texcoords
vt 0.978516 0.5
vt 0.982422 0.5
vt 0.986328 0.5

# verts
v -1.6 0 1.4
v -1.6 0 1
v -1.6 0 0.4
v -1.6 0 0
v -1.6 0 -0.6
v -1.6 0 -1
v -1.6 0.1 1.4
v -1.6 0.1 1
v -1.6 0.1 0.4
v -1.6 0.1 0
v -1.6 0.1 -0.6
v -1.6 0.1 -1
v -1.5 0 0.9
v -1.5 0 0.5
v -1.5 0 -0.1
v -1.5 0 -0.5
v -1.5 0 -1.1
v -1.5 0 -1.5
v -1.5 0.1 0.9
v -1.5 0.1 0.5
v -1.5 0.1 -0.1
v -1.5 0.1 -0.5
v -1.5 0.1 -1.1
v -1.5 0.1 -1.5
v -0.9 0 1.4
v -0.9 0 1
v -0.9 0 0.4
v -0.9 0 0
v -0.9 0 -0.6
v -0.9 0 -1
v -0.9 0.1 1.4
v -0.9 0.1 1
v -0.9 0.1 0.4
v -0.9 0.1 0
v -0.9 0.1 -0.6
v -0.9 0.1 -1
v -0.3 0 0.9
v -0.3 0 0.5
v -0.3 0 -0.1
v -0.3 0 -0.5
v -0.3 0 -1.1
v -0.3 0 -1.5
v -0.3 0.1 0.9
v -0.3 0.1 0.5
v -0.3 0.1 -0.1
v -0.3 0.1 -0.5
v -0.3 0.1 -1.1
v -0.3 0.1 -1.5
v 0.3 0 1.4
v 0.3 0 1
v 0.3 0 0.4
v 0.3 0 0
v 0.3 0 -0.6
v 0.3 0 -1
v 0.3 0.1 1.4
v 0.3 0.1 1
v 0.3 0.1 0.4
v 0.3 0.1 0
v 0.3 0.1 -0.6
v 0.3 0.1 -1
v 0.9 0 0.9
v 0.9 0 0.5
v 0.9 0 -0.1
v 0.9 0 -0.5
v 0.9 0 -1.1
v 0.9 0 -1.5
v 0.9 0.1 0.9
v 0.9 0.1 0.5
v 0.9 0.1 -0.1
v 0.9 0.1 -0.5
v 0.9 0.1 -1.1
v 0.9 0.1 -1.5
v 1.5 0 1.4
v 1.5 0 1
v 1.5 0 0.4
v 1.5 0 0
v 1.5 0 -0.6
v 1.5 0 -1
v 1.5 0.1 1.4
v 1.5 0.1 1
v 1.5 0.1 0.4
v 1.5 0.1 0
v 1.5 0.1 -0.6
v 1.5 0.1 -1
v -1 0 1.4
v -1 0 1
v -1 0 0.4
v -1 0 0
v -1 0 -0.6
v -1 0 -1
v -1 0.1 1.4
v -1 0.1 1
v -1 0.1 0.4
v -1 0.1 0
v -1 0.1 -0.6
v -1 0.1 -1
v -0.4 0 0.9
v -0.4 0 0.5
v -0.4 0 -0.1
v -0.4 0 -0.5
v -0.4 0 -1.1
v -0.4 0 -1.5
v -0.4 0.1 0.9
v -0.4 0.1 0.5
v -0.4 0.1 -0.1
v -0.4 0.1 -0.5
v -0.4 0.1 -1.1
v -0.4 0.1 -1.5
v 0.2 0 1.4
v 0.2 0 1
v 0.2 0 0.4
v 0.2 0 0
v 0.2 0 -0.6
v 0.2 0 -1
v 0.2 0.1 1.4
v 0.2 0.1 1
v 0.2 0.1 0.4
v 0.2 0.1 0
v 0.2 0.1 -0.6
v 0.2 0.1 -1
v 0.8 0 0.9
v 0.8 0 0.5
v 0.8 0 -0.1
v 0.8 0 -0.5
v 0.8 0 -1.1
v 0.8 0 -1.5
v 0.8 0.1 0.9
v 0.8 0.1 0.5
v 0.8 0.1 -0.1
v 0.8 0.1 -0.5
v 0.8 0.1 -1.1
v 0.8 0.1 -1.5
v 1.4 0 1.4
v 1.4 0 1
v 1.4 0 0.4
v 1.4 0 0
v 1.4 0 -0.6
v 1.4 0 -1
v 1.4 0.1 1.4
v 1.4 0.1 1
v 1.4 0.1 0.4
v 1.4 0.1 0
v 1.4 0.1 -0.6
v 1.4 0.1 -1
v 1.6 0 1.4
v 1.6 0 1
v 1.6 0 0.9
v 1.6 0 0.5
v 1.6 0 0.4
v 1.6 0 0
v 1.6 0 -0.1
v 1.6 0 -0.5
v 1.6 0 -0.6
v 1.6 0 -1
v 1.6 0 -1.1
v 1.6 0 -1.5
v 1.6 0.1 1.4
v 1.6 0.1 1
v 1.6 0.1 0.9
v 1.6 0.1 0.5
v 1.6 0.1 0.4
v 1.6 0.1 0
v 1.6 0.1 -0.1
v 1.6 0.1 -0.5
v 1.6 0.1 -0.6
v 1.6 0.1 -1
v 1.6 0.1 -1.1
v 1.6 0.1 -1.5
v -1.6 0 1.4
v -1.6 0.1 1.4
v -1 0 1.4
v -1 0.1 1.4
v -0.9 0 1.4
v -0.9 0.1 1.4
v 0.2 0 1.4
v 0.2 0.1 1.4
v 0.3 0 1.4
v 0.3 0.1 1.4
v 1.4 0 1.4
v 1.4 0.1 1.4
v 1.5 0 1.4
v 1.5 0.1 1.4
v 1.6 0 1.4
v 1.6 0.1 1.4
v -1.5 0 0.9
v -1.5 0.1 0.9
v -0.4 0 0.9
v -0.4 0.1 0.9
v -0.3 0 0.9
v -0.3 0.1 0.9
v 0.8 0 0.9
v 0.8 0.1 0.9
v 0.9 0 0.9
v 0.9 0.1 0.9
v 1.6 0 0.9
v 1.6 0.1 0.9
v -1.6 0 0.4
v -1.6 0.1 0.4
v -1 0 0.4
v -1 0.1 0.4
v -0.9 0 0.4
v -0.9 0.1 0.4
v 0.2 0 0.4
v 0.2 0.1 0.4
v 0.3 0 0.4
v 0.3 0.1 0.4
v 1.4 0 0.4
v 1.4 0.1 0.4
v 1.5 0 0.4
v 1.5 0.1 0.4
v 1.6 0 0.4
v 1.6 0.1 0.4
v -1.5 0 -0.1
v -1.5 0.1 -0.1
v -0.4 0 -0.1
v -0.4 0.1 -0.1
v -0.3 0 -0.1
v -0.3 0.1 -0.1
v 0.8 0 -0.1
v 0.8 0.1 -0.1
v 0.9 0 -0.1
v 0.9 0.1 -0.1
v 1.6 0 -0.1
v 1.6 0.1 -0.1
v -1.6 0 -0.6
v -1.6 0.1 -0.6
v -1 0 -0.6
v -1 0.1 -0.6
v -0.9 0 -0.6
v -0.9 0.1 -0.6
v 0.2 0 -0.6
v 0.2 0.1 -0.6
v 0.3 0 -0.6
v 0.3 0.1 -0.6
v 1.4 0 -0.6
v 1.4 0.1 -0.6
v 1.5 0 -0.6
v 1.5 0.1 -0.6
v 1.6 0 -0.6
v 1.6 0.1 -0.6
v -1.5 0 -1.1
v -1.5 0.1 -1.1
v -0.4 0 -1.1
v -0.4 0.1 -1.1
v -0.3 0 -1.1
v -0.3 0.1 -1.1
v 0.8 0 -1.1
v 0.8 0.1 -1.1
v 0.9 0 -1.1
v 0.9 0.1 -1.1
v 1.6 0 -1.1
v 1.6 0.1 -1.1
v -1.6 0 1
v -1.6 0.1 1
v -1 0 1
v -1 0.1 1
v -0.9 0 1
v -0.9 0.1 1
v 0.2 0 1
v 0.2 0.1 1
v 0.3 0 1
v 0.3 0.1 1
v 1.4 0 1
v 1.4 0.1 1
v 1.5 0 1
v 1.5 0.1 1
v 1.6 0 1
v 1.6 0.1 1
v -1.5 0 0.5
v -1.5 0.1 0.5
v -0.4 0 0.5
v -0.4 0.1 0.5
v -0.3 0 0.5
v -0.3 0.1 0.5
v 0.8 0 0.5
v 0.8 0.1 0.5
v 0.9 0 0.5
v 0.9 0.1 0.5
v 1.6 0 0.5
v 1.6 0.1 0.5
v -1.6 0 0
v -1.6 0.1 0
v -1 0 0
v -1 0.1 0
v -0.9 0 0
v -0.9 0.1 0
v 0.2 0 0
v 0.2 0.1 0
v 0.3 0 0
v 0.3 0.1 0
v 1.4 0 0
v 1.4 0.1 0
v 1.5 0 0
v 1.5 0.1 0
v 1.6 0 0
v 1.6 0.1 0
v -1.5 0 -0.5
v -1.5 0.1 -0.5
v -0.4 0 -0.5
v -0.4 0.1 -0.5
v -0.3 0 -0.5
v -0.3 0.1 -0.5
v 0.8 0 -0.5
v 0.8 0.1 -0.5
v 0.9 0 -0.5
v 0.9 0.1 -0.5
v 1.6 0 -0.5
v 1.6 0.1 -0.5
v -1.6 0 -1
v -1.6 0.1 -1
v -1 0 -1
v -1 0.1 -1
v -0.9 0 -1
v -0.9 0.1 -1
v 0.2 0 -1
v 0.2 0.1 -1
v 0.3 0 -1
v 0.3 0.1 -1
v 1.4 0 -1
v 1.4 0.1 -1
v 1.5 0 -1
v 1.5 0.1 -1
v 1.6 0 -1
v 1.6 0.1 -1
v -1.5 0 -1.5
v -1.5 0.1 -1.5
v -0.4 0 -1.5
v -0.4 0.1 -1.5
v -0.3 0 -1.5
v -0.3 0.1 -1.5
v 0.8 0 -1.5
v 0.8 0.1 -1.5
v 0.9 0 -1.5
v 0.9 0.1 -1.5
v 1.6 0 -1.5
v 1.6 0.1 -1.5
v -1.6 0 1.4
v -1 0 1.4
v -0.9 0 1.4
v 0.2 0 1.4
v 0.3 0 1.4
v 1.4 0 1.4
v 1.5 0 1.4
v 1.6 0 1.4
v -1.6 0 1
v -1 0 1
v -0.9 0 1
v 0.2 0 1
v 0.3 0 1
v 1.4 0 1
v 1.5 0 1
v 1.6 0 1
v -1.5 0 0.9
v -0.4 0 0.9
v -0.3 0 0.9
v 0.8 0 0.9
v 0.9 0 0.9
v 1.6 0 0.9
v -1.5 0 0.5
v -0.4 0 0.5
v -0.3 0 0.5
v 0.8 0 0.5
v 0.9 0 0.5
v 1.6 0 0.5
v -1.6 0 0.4
v -1 0 0.4
v -0.9 0 0.4
v 0.2 0 0.4
v 0.3 0 0.4
v 1.4 0 0.4
v 1.5 0 0.4
v 1.6 0 0.4
v -1.6 0 0
v -1 0 0
v -0.9 0 0
v 0.2 0 0
v 0.3 0 0
v 1.4 0 0
v 1.5 0 0
v 1.6 0 0
v -1.5 0 -0.1
v -0.4 0 -0.1
v -0.3 0 -0.1
v 0.8 0 -0.1
v 0.9 0 -0.1
v 1.6 0 -0.1
v -1.5 0 -0.5
v -0.4 0 -0.5
v -0.3 0 -0.5
v 0.8 0 -0.5
v 0.9 0 -0.5
v 1.6 0 -0.5
v -1.6 0 -0.6
v -1 0 -0.6
v -0.9 0 -0.6
v 0.2 0 -0.6
v 0.3 0 -0.6
v 1.4 0 -0.6
v 1.5 0 -0.6
v 1.6 0 -0.6
v -1.6 0 -1
v -1 0 -1
v -0.9 0 -1
v 0.2 0 -1
v 0.3 0 -1
v 1.4 0 -1
v 1.5 0 -1
v 1.6 0 -1
v -1.5 0 -1.1
v -0.4 0 -1.1
v -0.3 0 -1.1
v 0.8 0 -1.1
v 0.9 0 -1.1
v 1.6 0 -1.1
v -1.5 0 -1.5
v -0.4 0 -1.5
v -0.3 0 -1.5
v 0.8 0 -1.5
v 0.9 0 -1.5
v 1.6 0 -1.5
v -1.6 0.1 1.4
v -1 0.1 1.4
v -0.9 0.1 1.4
v 0.2 0.1 1.4
v 0.3 0.1 1.4
v 1.4 0.1 1.4
v 1.5 0.1 1.4
v 1.6 0.1 1.4
v -1.6 0.1 1
v -1 0.1 1
v -0.9 0.1 1
v 0.2 0.1 1
v 0.3 0.1 1
v 1.4 0.1 1
v 1.5 0.1 1
v 1.6 0.1 1
v -1.5 0.1 0.9
v -0.4 0.1 0.9
v -0.3 0.1 0.9
v 0.8 0.1 0.9
v 0.9 0.1 0.9
v 1.6 0.1 0.9
v -1.5 0.1 0.5
v -0.4 0.1 0.5
v -0.3 0.1 0.5
v 0.8 0.1 0.5
v 0.9 0.1 0.5
v 1.6 0.1 0.5
v -1.6 0.1 0.4
v -1 0.1 0.4
v -0.9 0.1 0.4
v 0.2 0.1 0.4
v 0.3 0.1 0.4
v 1.4 0.1 0.4
v 1.5 0.1 0.4
v 1.6 0.1 0.4
v -1.6 0.1 0
v -1 0.1 0
v -0.9 0.1 0
v 0.2 0.1 0
v 0.3 0.1 0
v 1.4 0.1 0
v 1.5 0.1 0
v 1.6 0.1 0
v -1.5 0.1 -0.1
v -0.4 0.1 -0.1
v -0.3 0.1 -0.1
v 0.8 0.1 -0.1
v 0.9 0.1 -0.1
v 1.6 0.1 -0.1
v -1.5 0.1 -0.5
v -0.4 0.1 -0.5
v -0.3 0.1 -0.5
v 0.8 0.1 -0.5
v 0.9 0.1 -0.5
v 1.6 0.1 -0.5
v -1.6 0.1 -0.6
v -1 0.1 -0.6
v -0.9 0.1 -0.6
v 0.2 0.1 -0.6
v 0.3 0.1 -0.6
v 1.4 0.1 -0.6
v 1.5 0.1 -0.6
v 1.6 0.1 -0.6
v -1.6 0.1 -1
v -1 0.1 -1
v -0.9 0.1 -1
v 0.2 0.1 -1
v 0.3 0.1 -1
v 1.4 0.1 -1
v 1.5 0.1 -1
v 1.6 0.1 -1
v -1.5 0.1 -1.1
v -0.4 0.1 -1.1
v -0.3 0.1 -1.1
v 0.8 0.1 -1.1
v 0.9 0.1 -1.1
v 1.6 0.1 -1.1
v -1.5 0.1 -1.5
v -0.4 0.1 -1.5
v -0.3 0.1 -1.5
v 0.8 0.1 -1.5
v 0.9 0.1 -1.5
v 1.6 0.1 -1.5

# faces
f 7/2/1 2/2/1 1/2/1
f 8/2/1 2/2/1 7/2/1
f 9/2/1 4/2/1 3/2/1
f 10/2/1 4/2/1 9/2/1
f 11/2/1 6/2/1 5/2/1
f 12/2/1 6/2/1 11/2/1
f 19/1/1 14/1/1 13/1/1
f 20/1/1 14/1/1 19/1/1
f 21/1/1 16/1/1 15/1/1
f 22/1/1 16/1/1 21/1/1
f 23/1/1 18/1/1 17/1/1
f 24/1/1 18/1/1 23/1/1
f 31/2/1 26/2/1 25/2/1
f 32/2/1 26/2/1 31/2/1
f 33/2/1 28/2/1 27/2/1
f 34/2/1 28/2/1 33/2/1
f 35/3/1 30/3/1 29/3/1
f 36/3/1 30/3/1 35/3/1
f 43/2/1 38/2/1 37/2/1
f 44/2/1 38/2/1 43/2/1
f 45/2/1 40/2/1 39/2/1
f 46/2/1 40/2/1 45/2/1
f 47/3/1 42/3/1 41/3/1
f 48/3/1 42/3/1 47/3/1
f 55/1/1 50/1/1 49/1/1
f 56/1/1 50/1/1 55/1/1
f 57/1/1 52/1/1 51/1/1
f 58/1/1 52/1/1 57/1/1
f 59/1/1 54/1/1 53/1/1
f 60/1/1 54/1/1 59/1/1
f 67/2/1 62/2/1 61/2/1
f 68/2/1 62/2/1 67/2/1
f 69/2/1 64/2/1 63/2/1
f 70/2/1 64/2/1 69/2/1
f 71/2/1 66/2/1 65/2/1
f 72/2/1 66/2/1 71/2/1
f 79/2/1 74/2/1 73/2/1
f 80/2/1 74/2/1 79/2/1
f 81/2/1 76/2/1 75/2/1
f 82/2/1 76/2/1 81/2/1
f 83/2/1 78/2/1 77/2/1
f 84/2/1 78/2/1 83/2/1
f 85/2/2 86/2/2 91/2/2
f 91/2/2 86/2/2 92/2/2
f 87/2/2 88/2/2 93/2/2
f 93/2/2 88/2/2 94/2/2
f 89/2/2 90/2/2 95/2/2
f 95/2/2 90/2/2 96/2/2
f 97/1/2 98/1/2 103/1/2
f 103/1/2 98/1/2 104/1/2
f 99/1/2 100/1/2 105/1/2
f 105/1/2 100/1/2 106/1/2
f 101/1/2 102/1/2 107/1/2
f 107/1/2 102/1/2 108/1/2
f 109/2/2 110/2/2 115/2/2
f 115/2/2 110/2/2 116/2/2
f 111/2/2 112/2/2 117/2/2
f 117/2/2 112/2/2 118/2/2
f 113/3/2 114/3/2 119/3/2
f 119/3/2 114/3/2 120/3/2
f 121/2/2 122/2/2 127/2/2
f 127/2/2 122/2/2 128/2/2
f 123/2/2 124/2/2 129/2/2
f 129/2/2 124/2/2 130/2/2
f 125/3/2 126/3/2 131/3/2
f 131/3/2 126/3/2 132/3/2
f 133/1/2 134/1/2 139/1/2
f 139/1/2 134/1/2 140/1/2
f 135/1/2 136/1/2 141/1/2
f 141/1/2 136/1/2 142/1/2
f 137/1/2 138/1/2 143/1/2
f 143/1/2 138/1/2 144/1/2
f 145/2/2 146/2/2 157/2/2
f 157/2/2 146/2/2 158/2/2
f 147/2/2 148/2/2 159/2/2
f 159/2/2 148/2/2 160/2/2
f 149/2/2 150/2/2 161/2/2
f 161/2/2 150/2/2 162/2/2
f 151/2/2 152/2/2 163/2/2
f 163/2/2 152/2/2 164/2/2
f 153/2/2 154/2/2 165/2/2
f 165/2/2 154/2/2 166/2/2
f 155/2/2 156/2/2 167/2/2
f 167/2/2 156/2/2 168/2/2
f 171/2/3 170/2/3 169/2/3
f 172/2/3 170/2/3 171/2/3
f 175/2/3 174/2/3 173/2/3
f 176/2/3 174/2/3 175/2/3
f 179/1/3 178/1/3 177/1/3
f 180/1/3 178/1/3 179/1/3
f 183/2/3 182/2/3 181/2/3
f 184/2/3 182/2/3 183/2/3
f 187/1/3 186/1/3 185/1/3
f 188/1/3 186/1/3 187/1/3
f 191/2/3 190/2/3 189/2/3
f 192/2/3 190/2/3 191/2/3
f 195/2/3 194/2/3 193/2/3
f 196/2/3 194/2/3 195/2/3
f 199/2/3 198/2/3 197/2/3
f 200/2/3 198/2/3 199/2/3
f 203/2/3 202/2/3 201/2/3
f 204/2/3 202/2/3 203/2/3
f 207/1/3 206/1/3 205/1/3
f 208/1/3 206/1/3 207/1/3
f 211/2/3 210/2/3 209/2/3
f 212/2/3 210/2/3 211/2/3
f 215/1/3 214/1/3 213/1/3
f 216/1/3 214/1/3 215/1/3
f 219/2/3 218/2/3 217/2/3
f 220/2/3 218/2/3 219/2/3
f 223/2/3 222/2/3 221/2/3
f 224/2/3 222/2/3 223/2/3
f 227/2/3 226/2/3 225/2/3
f 228/2/3 226/2/3 227/2/3
f 231/3/3 230/3/3 229/3/3
f 232/3/3 230/3/3 231/3/3
f 235/1/3 234/1/3 233/1/3
f 236/1/3 234/1/3 235/1/3
f 239/2/3 238/2/3 237/2/3
f 240/2/3 238/2/3 239/2/3
f 243/1/3 242/1/3 241/1/3
f 244/1/3 242/1/3 243/1/3
f 247/3/3 246/3/3 245/3/3
f 248/3/3 246/3/3 247/3/3
f 251/2/3 250/2/3 249/2/3
f 252/2/3 250/2/3 251/2/3
f 253/2/4 254/2/4 255/2/4
f 255/2/4 254/2/4 256/2/4
f 257/2/4 258/2/4 259/2/4
f 259/2/4 258/2/4 260/2/4
f 261/1/4 262/1/4 263/1/4
f 263/1/4 262/1/4 264/1/4
f 265/2/4 266/2/4 267/2/4
f 267/2/4 266/2/4 268/2/4
f 269/1/4 270/1/4 271/1/4
f 271/1/4 270/1/4 272/1/4
f 273/2/4 274/2/4 275/2/4
f 275/2/4 274/2/4 276/2/4
f 277/2/4 278/2/4 279/2/4
f 279/2/4 278/2/4 280/2/4
f 281/2/4 282/2/4 283/2/4
f 283/2/4 282/2/4 284/2/4
f 285/2/4 286/2/4 287/2/4
f 287/2/4 286/2/4 288/2/4
f 289/1/4 290/1/4 291/1/4
f 291/1/4 290/1/4 292/1/4
f 293/2/4 294/2/4 295/2/4
f 295/2/4 294/2/4 296/2/4
f 297/1/4 298/1/4 299/1/4
f 299/1/4 298/1/4 300/1/4
f 301/2/4 302/2/4 303/2/4
f 303/2/4 302/2/4 304/2/4
f 305/2/4 306/2/4 307/2/4
f 307/2/4 306/2/4 308/2/4
f 309/2/4 310/2/4 311/2/4
f 311/2/4 310/2/4 312/2/4
f 313/3/4 314/3/4 315/3/4
f 315/3/4 314/3/4 316/3/4
f 317/1/4 318/1/4 319/1/4
f 319/1/4 318/1/4 320/1/4
f 321/2/4 322/2/4 323/2/4
f 323/2/4 322/2/4 324/2/4
f 325/1/4 326/1/4 327/1/4
f 327/1/4 326/1/4 328/1/4
f 329/3/4 330/3/4 331/3/4
f 331/3/4 330/3/4 332/3/4
f 333/2/4 334/2/4 335/2/4
f 335/2/4 334/2/4 336/2/4
f 345/2/5 338/2/5 337/2/5
f 346/2/5 338/2/5 345/2/5
f 347/2/5 340/2/5 339/2/5
f 348/2/5 340/2/5 347/2/5
f 349/1/5 342/1/5 341/1/5
f 350/1/5 342/1/5 349/1/5
f 351/2/5 344/2/5 343/2/5
f 352/2/5 344/2/5 351/2/5
f 359/1/5 354/1/5 353/1/5
f 360/1/5 354/1/5 359/1/5
f 361/2/5 356/2/5 355/2/5
f 362/2/5 356/2/5 361/2/5
f 363/2/5 358/2/5 357/2/5
f 364/2/5 358/2/5 363/2/5
f 373/2/5 366/2/5 365/2/5
f 374/2/5 366/2/5 373/2/5
f 375/2/5 368/2/5 367/2/5
f 376/2/5 368/2/5 375/2/5
f 377/1/5 370/1/5 369/1/5
f 378/1/5 370/1/5 377/1/5
f 379/2/5 372/2/5 371/2/5
f 380/2/5 372/2/5 379/2/5
f 387/1/5 382/1/5 381/1/5
f 388/1/5 382/1/5 387/1/5
f 389/2/5 384/2/5 383/2/5
f 390/2/5 384/2/5 389/2/5
f 391/2/5 386/2/5 385/2/5
f 392/2/5 386/2/5 391/2/5
f 401/2/5 394/2/5 393/2/5
f 402/2/5 394/2/5 401/2/5
f 403/3/5 396/3/5 395/3/5
f 404/3/5 396/3/5 403/3/5
f 405/1/5 398/1/5 397/1/5
f 406/1/5 398/1/5 405/1/5
f 407/2/5 400/2/5 399/2/5
f 408/2/5 400/2/5 407/2/5
f 415/1/5 410/1/5 409/1/5
f 416/1/5 410/1/5 415/1/5
f 417/3/5 412/3/5 411/3/5
f 418/3/5 412/3/5 417/3/5
f 419/2/5 414/2/5 413/2/5
f 420/2/5 414/2/5 419/2/5
f 421/2/6 422/2/6 429/2/6
f 429/2/6 422/2/6 430/2/6
f 423/2/6 424/2/6 431/2/6
f 431/2/6 424/2/6 432/2/6
f 425/1/6 426/1/6 433/1/6
f 433/1/6 426/1/6 434/1/6
f 427/2/6 428/2/6 435/2/6
f 435/2/6 428/2/6 436/2/6
f 437/1/6 438/1/6 443/1/6
f 443/1/6 438/1/6 444/1/6
f 439/2/6 440/2/6 445/2/6
f 445/2/6 440/2/6 446/2/6
f 441/2/6 442/2/6 447/2/6
f 447/2/6 442/2/6 448/2/6
f 449/2/6 450/2/6 457/2/6
f 457/2/6 450/2/6 458/2/6
f 451/2/6 452/2/6 459/2/6
f 459/2/6 452/2/6 460/2/6
f 453/1/6 454/1/6 461/1/6
f 461/1/6 454/1/6 462/1/6
f 455/2/6 456/2/6 463/2/6
f 463/2/6 456/2/6 464/2/6
f 465/1/6 466/1/6 471/1/6
f 471/1/6 466/1/6 472/1/6
f 467/2/6 468/2/6 473/2/6
f 473/2/6 468/2/6 474/2/6
f 469/2/6 470/2/6 475/2/6
f 475/2/6 470/2/6 476/2/6
f 477/2/6 478/2/6 485/2/6
f 485/2/6 478/2/6 486/2/6
f 479/3/6 480/3/6 487/3/6
f 487/3/6 480/3/6 488/3/6
f 481/1/6 482/1/6 489/1/6
f 489/1/6 482/1/6 490/1/6
f 483/2/6 484/2/6 491/2/6
f 491/2/6 484/2/6 492/2/6
f 493/1/6 494/1/6 499/1/6
f 499/1/6 494/1/6 500/1/6
f 495/3/6 496/3/6 501/3/6
f 501/3/6 496/3/6 502/3/6
f 497/2/6 498/2/6 503/2/6
f 503/2/6 498/2/6 504/2/6
