# MagicaVoxel @ Ephtracy

# group
o 

# material
mtllib player.mtl
usemtl palette

# normals
vn -1 0 0
vn 1 0 0
vn 0 0 1
vn 0 0 -1
vn 0 -1 0
vn 0 1 0

# texcoords
vt 0.982422 0.5
vt 0.986328 0.5
vt 0.990234 0.5
vt 0.994141 0.5

# verts
v -1.3 2 -2.98023e-08
v -1.3 2 -0.1
v -1.3 2.1 -2.98023e-08
v -1.3 2.1 -0.1
v -0.2 0 0.1
v -0.2 0 -0.1
v -0.2 0.1 0.1
v -0.2 0.1 -2.98023e-08
v -0.2 0.1 -0.1
v -0.2 0.2 -2.98023e-08
v -0.2 0.2 -0.1
v -0.2 1.1 -2.98023e-08
v -0.2 1.1 -0.1
v -0.2 2 -2.98023e-08
v -0.2 2 -0.1
v -0.2 2.2 0.2
v -0.2 2.2 -0.3
v -0.2 2.3 -0.1
v -0.2 2.3 -0.3
v -0.2 2.4 0.2
v -0.2 2.4 0.1
v -0.2 2.4 -2.98023e-08
v -0.2 2.4 -0.1
v -0.2 2.5 0.3
v -0.2 2.5 0.2
v -0.2 2.5 0.1
v -0.2 2.5 -2.98023e-08
v -0.2 2.6 0.2
v -0.2 2.6 0.1
v -0.2 2.7 0.3
v -0.2 2.7 -0.3
v 0 2.1 -2.98023e-08
v 0 2.1 -0.1
v 0 2.2 -2.98023e-08
v 0 2.2 -0.1
v 0 2.3 0.3
v 0 2.3 0.2
v 0 2.4 0.3
v 0 2.4 0.2
v 0.2 0 0.1
v 0.2 0 -0.1
v 0.2 0.1 0.1
v 0.2 0.1 -2.98023e-08
v 0.2 0.1 -0.1
v 0.2 0.2 -2.98023e-08
v 0.2 0.2 -0.1
v 0.2 1 -2.98023e-08
v 0.2 1 -0.1
v 0.2 2.5 0.3
v 0.2 2.5 0.2
v 0.2 2.6 0.2
v 0.2 2.7 0.3
v 0.2 2.7 0.2
v -0.0999999 0 0.1
v -0.0999999 0 -0.1
v -0.0999999 0.1 0.1
v -0.0999999 0.1 -2.98023e-08
v -0.0999999 0.1 -0.1
v -0.0999999 0.2 -2.98023e-08
v -0.0999999 0.2 -0.1
v -0.0999999 1 -2.98023e-08
v -0.0999999 1 -0.1
v -0.0999999 2.5 0.3
v -0.0999999 2.5 0.2
v -0.0999999 2.6 0.2
v -0.0999999 2.7 0.3
v -0.0999999 2.7 0.2
v 0.1 2.1 -2.98023e-08
v 0.1 2.1 -0.1
v 0.1 2.2 -2.98023e-08
v 0.1 2.2 -0.1
v 0.1 2.3 0.3
v 0.1 2.3 0.2
v 0.1 2.4 0.3
v 0.1 2.4 0.2
v 0.3 0 0.1
v 0.3 0 -0.1
v 0.3 0.1 0.1
v 0.3 0.1 -2.98023e-08
v 0.3 0.1 -0.1
v 0.3 0.2 -2.98023e-08
v 0.3 0.2 -0.1
v 0.3 1.1 -2.98023e-08
v 0.3 1.1 -0.1
v 0.3 2 -2.98023e-08
v 0.3 2 -0.1
v 0.3 2.2 0.2
v 0.3 2.2 -0.3
v 0.3 2.3 -0.1
v 0.3 2.3 -0.3
v 0.3 2.4 0.2
v 0.3 2.4 0.1
v 0.3 2.4 -2.98023e-08
v 0.3 2.4 -0.1
v 0.3 2.5 0.3
v 0.3 2.5 0.2
v 0.3 2.5 0.1
v 0.3 2.5 -2.98023e-08
v 0.3 2.6 0.2
v 0.3 2.6 0.1
v 0.3 2.7 0.3
v 0.3 2.7 -0.3
v 1.4 2 -2.98023e-08
v 1.4 2 -0.1
v 1.4 2.1 -2.98023e-08
v 1.4 2.1 -0.1
v -0.2 2.5 0.3
v -0.2 2.7 0.3
v -0.0999999 2.5 0.3
v -0.0999999 2.7 0.3
v 0 2.3 0.3
v 0 2.4 0.3
v 0.1 2.3 0.3
v 0.1 2.4 0.3
v 0.2 2.5 0.3
v 0.2 2.7 0.3
v 0.3 2.5 0.3
v 0.3 2.7 0.3
v -0.2 2.2 0.2
v -0.2 2.4 0.2
v -0.2 2.5 0.2
v -0.0999999 2.4 0.2
v -0.0999999 2.5 0.2
v -0.0999999 2.6 0.2
v -0.0999999 2.7 0.2
v 0 2.3 0.2
v 0 2.4 0.2
v 0 2.5 0.2
v 0.1 2.3 0.2
v 0.1 2.4 0.2
v 0.1 2.5 0.2
v 0.2 2.4 0.2
v 0.2 2.5 0.2
v 0.2 2.6 0.2
v 0.2 2.7 0.2
v 0.3 2.2 0.2
v 0.3 2.4 0.2
v 0.3 2.5 0.2
v -0.2 0 0.1
v -0.2 0.1 0.1
v -0.0999999 0 0.1
v -0.0999999 0.1 0.1
v 0.2 0 0.1
v 0.2 0.1 0.1
v 0.3 0 0.1
v 0.3 0.1 0.1
v -1.3 2 -2.98023e-08
v -1.3 2.1 -2.98023e-08
v -1.1 2 -2.98023e-08
v -1.1 2.1 -2.98023e-08
v -0.2 0.1 -2.98023e-08
v -0.2 0.2 -2.98023e-08
v -0.2 1.1 -2.98023e-08
v -0.2 2 -2.98023e-08
v -0.0999999 0.1 -2.98023e-08
v -0.0999999 0.2 -2.98023e-08
v -0.0999999 1 -2.98023e-08
v 0 2.1 -2.98023e-08
v 0 2.2 -2.98023e-08
v 0.1 2.1 -2.98023e-08
v 0.1 2.2 -2.98023e-08
v 0.2 0.1 -2.98023e-08
v 0.2 0.2 -2.98023e-08
v 0.2 1 -2.98023e-08
v 0.3 0.1 -2.98023e-08
v 0.3 0.2 -2.98023e-08
v 0.3 1.1 -2.98023e-08
v 0.3 2 -2.98023e-08
v 1.2 2 -2.98023e-08
v 1.2 2.1 -2.98023e-08
v 1.4 2 -2.98023e-08
v 1.4 2.1 -2.98023e-08
v -1.3 2 -0.1
v -1.3 2.1 -0.1
v -1.1 2 -0.1
v -1.1 2.1 -0.1
v -0.2 0 -0.1
v -0.2 0.1 -0.1
v -0.2 0.2 -0.1
v -0.2 1.1 -0.1
v -0.2 2 -0.1
v -0.0999999 0 -0.1
v -0.0999999 0.1 -0.1
v -0.0999999 0.2 -0.1
v -0.0999999 1 -0.1
v 0 2.1 -0.1
v 0 2.2 -0.1
v 0.1 2.1 -0.1
v 0.1 2.2 -0.1
v 0.2 0 -0.1
v 0.2 0.1 -0.1
v 0.2 0.2 -0.1
v 0.2 1 -0.1
v 0.3 0 -0.1
v 0.3 0.1 -0.1
v 0.3 0.2 -0.1
v 0.3 1.1 -0.1
v 0.3 2 -0.1
v 1.2 2 -0.1
v 1.2 2.1 -0.1
v 1.4 2 -0.1
v 1.4 2.1 -0.1
v -0.2 2.2 -0.3
v -0.2 2.3 -0.3
v -0.2 2.7 -0.3
v -0.0999999 2.2 -0.3
v -0.0999999 2.3 -0.3
v 0.2 2.2 -0.3
v 0.2 2.3 -0.3
v 0.3 2.2 -0.3
v 0.3 2.3 -0.3
v 0.3 2.7 -0.3
v -0.2 0 0.1
v -0.0999999 0 0.1
v 0.2 0 0.1
v 0.3 0 0.1
v -0.2 0 -0.1
v -0.0999999 0 -0.1
v 0.2 0 -0.1
v 0.3 0 -0.1
v -0.0999999 1 -2.98023e-08
v 0.2 1 -2.98023e-08
v -0.0999999 1 -0.1
v 0.2 1 -0.1
v -1.3 2 -2.98023e-08
v -1.1 2 -2.98023e-08
v -0.2 2 -2.98023e-08
v 0.3 2 -2.98023e-08
v 1.2 2 -2.98023e-08
v 1.4 2 -2.98023e-08
v -1.3 2 -0.1
v -1.1 2 -0.1
v -0.2 2 -0.1
v 0.3 2 -0.1
v 1.2 2 -0.1
v 1.4 2 -0.1
v -0.2 2.2 0.2
v 0.3 2.2 0.2
v 0 2.2 -2.98023e-08
v 0.1 2.2 -2.98023e-08
v 0 2.2 -0.1
v 0.1 2.2 -0.1
v -0.0999999 2.2 -0.2
v 0.2 2.2 -0.2
v -0.2 2.2 -0.3
v -0.0999999 2.2 -0.3
v 0.2 2.2 -0.3
v 0.3 2.2 -0.3
v 0 2.3 0.3
v 0.1 2.3 0.3
v 0 2.3 0.2
v 0.1 2.3 0.2
v -0.2 2.5 0.3
v -0.0999999 2.5 0.3
v 0.2 2.5 0.3
v 0.3 2.5 0.3
v -0.2 2.5 0.2
v -0.0999999 2.5 0.2
v 0.2 2.5 0.2
v 0.3 2.5 0.2
v -0.2 0.1 0.1
v -0.0999999 0.1 0.1
v 0.2 0.1 0.1
v 0.3 0.1 0.1
v -0.2 0.1 -2.98023e-08
v -0.0999999 0.1 -2.98023e-08
v 0.2 0.1 -2.98023e-08
v 0.3 0.1 -2.98023e-08
v -1.3 2.1 -2.98023e-08
v -1.1 2.1 -2.98023e-08
v 0 2.1 -2.98023e-08
v 0.1 2.1 -2.98023e-08
v 1.2 2.1 -2.98023e-08
v 1.4 2.1 -2.98023e-08
v -1.3 2.1 -0.1
v -1.1 2.1 -0.1
v 0 2.1 -0.1
v 0.1 2.1 -0.1
v 1.2 2.1 -0.1
v 1.4 2.1 -0.1
v 0 2.4 0.3
v 0.1 2.4 0.3
v 0 2.4 0.2
v 0.1 2.4 0.2
v -0.2 2.7 0.3
v -0.0999999 2.7 0.3
v 0.2 2.7 0.3
v 0.3 2.7 0.3
v -0.0999999 2.7 0.2
v 0.2 2.7 0.2
v -0.2 2.7 -0.3
v 0.3 2.7 -0.3

# faces
f 3/1/1 2/1/1 1/1/1
f 4/1/1 2/1/1 3/1/1
f 7/4/1 6/4/1 5/4/1
f 8/4/1 6/4/1 7/4/1
f 9/4/1 6/4/1 8/4/1
f 10/3/1 9/3/1 8/3/1
f 11/3/1 9/3/1 10/3/1
f 12/2/1 11/2/1 10/2/1
f 13/2/1 11/2/1 12/2/1
f 14/3/1 13/3/1 12/3/1
f 15/3/1 13/3/1 14/3/1
f 18/1/1 17/1/1 16/1/1
f 19/1/1 17/1/1 18/1/1
f 20/1/1 18/1/1 16/1/1
f 21/1/1 18/1/1 20/1/1
f 22/1/1 18/1/1 21/1/1
f 23/4/1 19/4/1 18/4/1
f 23/1/1 18/1/1 22/1/1
f 25/3/1 21/3/1 20/3/1
f 26/1/1 22/1/1 21/1/1
f 26/3/1 21/3/1 25/3/1
f 27/4/1 23/4/1 22/4/1
f 27/1/1 22/1/1 26/1/1
f 28/4/1 25/4/1 24/4/1
f 28/1/1 26/1/1 25/1/1
f 29/4/1 27/4/1 26/4/1
f 29/1/1 26/1/1 28/1/1
f 30/4/1 28/4/1 24/4/1
f 30/4/1 29/4/1 28/4/1
f 31/4/1 23/4/1 27/4/1
f 31/4/1 29/4/1 30/4/1
f 31/4/1 19/4/1 23/4/1
f 31/4/1 27/4/1 29/4/1
f 34/1/1 33/1/1 32/1/1
f 35/1/1 33/1/1 34/1/1
f 38/1/1 37/1/1 36/1/1
f 39/1/1 37/1/1 38/1/1
f 42/4/1 41/4/1 40/4/1
f 43/4/1 41/4/1 42/4/1
f 44/4/1 41/4/1 43/4/1
f 45/3/1 44/3/1 43/3/1
f 46/3/1 44/3/1 45/3/1
f 47/2/1 46/2/1 45/2/1
f 48/2/1 46/2/1 47/2/1
f 51/4/1 50/4/1 49/4/1
f 52/4/1 51/4/1 49/4/1
f 53/4/1 51/4/1 52/4/1
f 54/4/2 55/4/2 56/4/2
f 56/4/2 55/4/2 57/4/2
f 57/4/2 55/4/2 58/4/2
f 57/3/2 58/3/2 59/3/2
f 59/3/2 58/3/2 60/3/2
f 59/2/2 60/2/2 61/2/2
f 61/2/2 60/2/2 62/2/2
f 63/4/2 64/4/2 65/4/2
f 63/4/2 65/4/2 66/4/2
f 66/4/2 65/4/2 67/4/2
f 68/1/2 69/1/2 70/1/2
f 70/1/2 69/1/2 71/1/2
f 72/1/2 73/1/2 74/1/2
f 74/1/2 73/1/2 75/1/2
f 76/4/2 77/4/2 78/4/2
f 78/4/2 77/4/2 79/4/2
f 79/4/2 77/4/2 80/4/2
f 79/3/2 80/3/2 81/3/2
f 81/3/2 80/3/2 82/3/2
f 81/2/2 82/2/2 83/2/2
f 83/2/2 82/2/2 84/2/2
f 83/3/2 84/3/2 85/3/2
f 85/3/2 84/3/2 86/3/2
f 87/1/2 88/1/2 89/1/2
f 89/1/2 88/1/2 90/1/2
f 87/1/2 89/1/2 91/1/2
f 91/1/2 89/1/2 92/1/2
f 92/1/2 89/1/2 93/1/2
f 89/4/2 90/4/2 94/4/2
f 93/1/2 89/1/2 94/1/2
f 91/3/2 92/3/2 96/3/2
f 92/1/2 93/1/2 97/1/2
f 96/3/2 92/3/2 97/3/2
f 93/4/2 94/4/2 98/4/2
f 97/1/2 93/1/2 98/1/2
f 95/4/2 96/4/2 99/4/2
f 96/1/2 97/1/2 99/1/2
f 97/4/2 98/4/2 100/4/2
f 99/1/2 97/1/2 100/1/2
f 95/4/2 99/4/2 101/4/2
f 99/4/2 100/4/2 101/4/2
f 98/4/2 94/4/2 102/4/2
f 101/4/2 100/4/2 102/4/2
f 94/4/2 90/4/2 102/4/2
f 100/4/2 98/4/2 102/4/2
f 103/1/2 104/1/2 105/1/2
f 105/1/2 104/1/2 106/1/2
f 109/4/3 108/4/3 107/4/3
f 110/4/3 108/4/3 109/4/3
f 113/1/3 112/1/3 111/1/3
f 114/1/3 112/1/3 113/1/3
f 117/4/3 116/4/3 115/4/3
f 118/4/3 116/4/3 117/4/3
f 122/1/3 120/1/3 119/1/3
f 122/3/3 121/3/3 120/3/3
f 123/3/3 121/3/3 122/3/3
f 126/1/3 122/1/3 119/1/3
f 127/4/3 123/4/3 122/4/3
f 127/1/3 122/1/3 126/1/3
f 128/1/3 124/1/3 123/1/3
f 128/4/3 123/4/3 127/4/3
f 129/1/3 126/1/3 119/1/3
f 130/1/3 128/1/3 127/1/3
f 131/1/3 124/1/3 128/1/3
f 131/1/3 128/1/3 130/1/3
f 132/1/3 130/1/3 129/1/3
f 132/4/3 131/4/3 130/4/3
f 133/1/3 124/1/3 131/1/3
f 133/4/3 131/4/3 132/4/3
f 134/4/3 125/4/3 124/4/3
f 134/1/3 124/1/3 133/1/3
f 135/4/3 125/4/3 134/4/3
f 136/1/3 132/1/3 129/1/3
f 136/1/3 129/1/3 119/1/3
f 137/3/3 133/3/3 132/3/3
f 137/1/3 132/1/3 136/1/3
f 138/3/3 133/3/3 137/3/3
f 141/4/3 140/4/3 139/4/3
f 142/4/3 140/4/3 141/4/3
f 145/4/3 144/4/3 143/4/3
f 146/4/3 144/4/3 145/4/3
f 149/1/3 148/1/3 147/1/3
f 150/1/3 148/1/3 149/1/3
f 154/3/3 150/3/3 149/3/3
f 155/3/3 152/3/3 151/3/3
f 156/2/3 153/2/3 152/2/3
f 156/3/3 152/3/3 155/3/3
f 157/2/3 153/2/3 156/2/3
f 158/3/3 154/3/3 153/3/3
f 158/3/3 150/3/3 154/3/3
f 160/3/3 158/3/3 153/3/3
f 160/1/3 159/1/3 158/1/3
f 161/1/3 159/1/3 160/1/3
f 164/2/3 153/2/3 157/2/3
f 165/3/3 163/3/3 162/3/3
f 166/2/3 164/2/3 163/2/3
f 166/3/3 163/3/3 165/3/3
f 167/3/3 160/3/3 153/3/3
f 167/2/3 164/2/3 166/2/3
f 167/2/3 153/2/3 164/2/3
f 168/3/3 160/3/3 167/3/3
f 169/3/3 160/3/3 168/3/3
f 170/3/3 160/3/3 169/3/3
f 171/1/3 170/1/3 169/1/3
f 172/1/3 170/1/3 171/1/3
f 173/1/4 174/1/4 175/1/4
f 175/1/4 174/1/4 176/1/4
f 175/3/4 176/3/4 181/3/4
f 177/4/4 178/4/4 182/4/4
f 178/3/4 179/3/4 183/3/4
f 182/4/4 178/4/4 183/4/4
f 179/2/4 180/2/4 184/2/4
f 183/3/4 179/3/4 184/3/4
f 184/2/4 180/2/4 185/2/4
f 180/3/4 181/3/4 186/3/4
f 181/3/4 176/3/4 186/3/4
f 180/3/4 186/3/4 188/3/4
f 186/1/4 187/1/4 188/1/4
f 188/1/4 187/1/4 189/1/4
f 185/2/4 180/2/4 193/2/4
f 190/4/4 191/4/4 194/4/4
f 191/3/4 192/3/4 195/3/4
f 194/4/4 191/4/4 195/4/4
f 192/2/4 193/2/4 196/2/4
f 195/3/4 192/3/4 196/3/4
f 180/3/4 188/3/4 197/3/4
f 196/2/4 193/2/4 197/2/4
f 193/2/4 180/2/4 197/2/4
f 197/3/4 188/3/4 198/3/4
f 198/3/4 188/3/4 199/3/4
f 199/3/4 188/3/4 200/3/4
f 199/1/4 200/1/4 201/1/4
f 201/1/4 200/1/4 202/1/4
f 203/1/4 204/1/4 206/1/4
f 204/4/4 205/4/4 207/4/4
f 206/1/4 204/1/4 207/1/4
f 206/4/4 207/4/4 208/4/4
f 207/4/4 205/4/4 209/4/4
f 208/4/4 207/4/4 209/4/4
f 208/1/4 209/1/4 210/1/4
f 209/4/4 205/4/4 211/4/4
f 210/1/4 209/1/4 211/1/4
f 211/4/4 205/4/4 212/4/4
f 217/4/5 214/4/5 213/4/5
f 218/4/5 214/4/5 217/4/5
f 219/4/5 216/4/5 215/4/5
f 220/4/5 216/4/5 219/4/5
f 223/2/5 222/2/5 221/2/5
f 224/2/5 222/2/5 223/2/5
f 231/1/5 226/1/5 225/1/5
f 232/3/5 227/3/5 226/3/5
f 232/1/5 226/1/5 231/1/5
f 233/3/5 227/3/5 232/3/5
f 234/3/5 229/3/5 228/3/5
f 235/1/5 230/1/5 229/1/5
f 235/3/5 229/3/5 234/3/5
f 236/1/5 230/1/5 235/1/5
f 239/1/5 238/1/5 237/1/5
f 240/1/5 238/1/5 239/1/5
f 241/1/5 239/1/5 237/1/5
f 242/1/5 238/1/5 240/1/5
f 243/1/5 241/1/5 237/1/5
f 243/1/5 242/1/5 241/1/5
f 244/1/5 238/1/5 242/1/5
f 244/1/5 242/1/5 243/1/5
f 245/1/5 243/1/5 237/1/5
f 246/4/5 244/4/5 243/4/5
f 246/1/5 243/1/5 245/1/5
f 247/1/5 238/1/5 244/1/5
f 247/4/5 244/4/5 246/4/5
f 248/1/5 238/1/5 247/1/5
f 251/1/5 250/1/5 249/1/5
f 252/1/5 250/1/5 251/1/5
f 257/4/5 254/4/5 253/4/5
f 258/4/5 254/4/5 257/4/5
f 259/4/5 256/4/5 255/4/5
f 260/4/5 256/4/5 259/4/5
f 261/4/6 262/4/6 265/4/6
f 265/4/6 262/4/6 266/4/6
f 263/4/6 264/4/6 267/4/6
f 267/4/6 264/4/6 268/4/6
f 269/1/6 270/1/6 275/1/6
f 270/3/6 271/3/6 276/3/6
f 275/1/6 270/1/6 276/1/6
f 276/3/6 271/3/6 277/3/6
f 272/3/6 273/3/6 278/3/6
f 273/1/6 274/1/6 279/1/6
f 278/3/6 273/3/6 279/3/6
f 279/1/6 274/1/6 280/1/6
f 281/1/6 282/1/6 283/1/6
f 283/1/6 282/1/6 284/1/6
f 285/4/6 286/4/6 289/4/6
f 287/4/6 288/4/6 290/4/6
f 285/4/6 289/4/6 291/4/6
f 289/4/6 290/4/6 291/4/6
f 290/4/6 288/4/6 292/4/6
f 291/4/6 290/4/6 292/4/6
